<svg width="118" height="32" viewBox="0 0 118 32" fill="none" xmlns="http://www.w3.org/2000/svg">
<g clip-path="url(#clip0_0_496)">
<path d="M55.5466 4.55239C54.1301 3.1094 52.4366 1.96675 50.5674 1.19287C48.6648 0.398364 46.5769 0.000739351 44.3037 -8.75754e-07C42.0304 -0.000741103 39.9283 0.396884 37.9973 1.19287C36.0653 1.98911 34.398 3.10895 32.9955 4.55239C31.5931 5.99584 30.5014 7.68997 29.7206 9.63479C28.9386 11.5801 28.5475 13.7021 28.5475 16.0007C28.5475 18.3288 28.9386 20.4649 29.7206 22.4093C30.5026 24.3536 31.5943 26.0404 32.9955 27.4698C34.3968 28.8987 36.0647 30.0111 37.9991 30.8071C39.9336 31.6031 42.036 32.0007 44.3063 32C46.5795 32 48.6674 31.6024 50.57 30.8071C52.4726 30.0119 54.1323 28.892 55.5492 27.4476C56.9657 26.0042 58.0653 24.31 58.8478 22.3652C59.6304 20.4204 60.021 18.3136 60.0198 16.0448C60.0198 13.7175 59.6291 11.5808 58.8478 9.63479C58.0665 7.68874 56.967 5.9946 55.5492 4.55239H55.5466ZM52.6282 19.8895C52.1856 21.0687 51.5588 22.0927 50.7476 22.9615C49.9433 23.8242 48.9725 24.5154 47.8937 24.9934C46.7993 25.4797 45.6029 25.7229 44.3044 25.7229C42.5632 25.7229 41.0141 25.3034 39.6574 24.4645C38.3006 23.6256 37.2308 22.4764 36.448 21.0169C35.6655 19.5574 35.2745 17.9 35.275 16.0448C35.275 14.6302 35.4964 13.3259 35.9391 12.1319C36.3819 10.938 37.009 9.90695 37.8205 9.03891C38.6295 8.17118 39.609 7.47934 40.6977 7.00662C41.8045 6.51979 43.0067 6.27651 44.3044 6.27675C45.6021 6.277 46.7973 6.52029 47.8899 7.00662C48.9732 7.48721 49.9449 8.18675 50.7438 9.06112C51.5548 9.94519 52.1817 10.9766 52.6245 12.1553C53.0672 13.334 53.2885 14.6305 53.2883 16.0448C53.2883 17.4298 53.067 18.7113 52.6245 19.8895" fill="white" fill-opacity="0.12"/>
<path d="M78.7395 17.2817C78.2965 18.4609 77.9276 19.4849 77.6328 20.3536C77.338 21.2224 77.0725 22.0473 76.8363 22.8282C76.8033 22.9359 76.7685 23.0573 76.7355 23.1684C76.5872 22.6942 76.439 22.2172 76.2833 21.7227C76.0911 21.1202 75.8623 20.4574 75.5969 19.7344C75.3315 19.0115 75.0215 18.1937 74.6669 17.281L68.2497 0.61957H61.1676L73.5613 31.5585H79.3585L91.8411 0.61957H84.8476L78.7395 17.2817Z" fill="white" fill-opacity="0.12"/>
<path d="M102.905 25.7236V6.45404H117.29V0.61957H96.3992V31.5577H117.6V25.7236H102.905Z" fill="white" fill-opacity="0.12"/>
<path d="M18.9651 19.1386C20.5144 18.2542 21.7465 17.0609 22.6615 15.5585C23.5764 14.056 24.0336 12.3763 24.0328 10.5194C24.0328 8.6044 23.5757 6.90286 22.6615 5.41476C21.7472 3.92666 20.5151 2.75562 18.9651 1.90164C17.4161 1.04619 15.668 0.618829 13.721 0.619569H0V31.5577H6.37495V6.36595H12.5694C13.5434 6.36595 14.3991 6.55101 15.1364 6.92112C15.8737 7.29124 16.4496 7.80557 16.864 8.46413C17.2769 9.12712 17.4833 9.8861 17.4833 10.7411C17.4833 11.5662 17.3135 12.3026 16.974 12.9503C16.6527 13.5798 16.1625 14.1077 15.5582 14.4751C14.9521 14.8445 14.2507 15.0283 13.4541 15.0266H8.30226L11.3785 20.4628L17.616 31.5577L25.2722 31.6025L18.2724 19.4943C18.5063 19.3832 18.7379 19.2677 18.964 19.1386" fill="white" fill-opacity="0.12"/>
<path d="M107.628 18.6078H112.614H113.294V12.9503H112.614H107.628V18.6078Z" fill="white" fill-opacity="0.12"/>
<mask id="mask0_0_496" style="mask-type:alpha" maskUnits="userSpaceOnUse" x="0" y="0" width="118" height="32">
<g clip-path="url(#clip1_0_496)">
<path d="M55.5466 4.55239C54.1301 3.1094 52.4366 1.96675 50.5674 1.19287C48.6648 0.398364 46.5769 0.000739351 44.3037 -8.75754e-07C42.0304 -0.000741103 39.9283 0.396884 37.9973 1.19287C36.0653 1.98911 34.398 3.10895 32.9955 4.55239C31.5931 5.99584 30.5014 7.68997 29.7206 9.63479C28.9386 11.5801 28.5475 13.7021 28.5475 16.0007C28.5475 18.3288 28.9386 20.4649 29.7206 22.4093C30.5026 24.3536 31.5943 26.0404 32.9955 27.4698C34.3968 28.8987 36.0647 30.0111 37.9991 30.8071C39.9336 31.6031 42.036 32.0007 44.3063 32C46.5795 32 48.6674 31.6024 50.57 30.8071C52.4726 30.0119 54.1323 28.892 55.5492 27.4476C56.9657 26.0042 58.0653 24.31 58.8478 22.3652C59.6304 20.4204 60.021 18.3136 60.0198 16.0448C60.0198 13.7175 59.6291 11.5808 58.8478 9.63479C58.0665 7.68874 56.967 5.9946 55.5492 4.55239H55.5466ZM52.6282 19.8895C52.1856 21.0687 51.5588 22.0927 50.7476 22.9615C49.9433 23.8242 48.9725 24.5154 47.8937 24.9934C46.7993 25.4797 45.6029 25.7229 44.3044 25.7229C42.5632 25.7229 41.0141 25.3034 39.6574 24.4645C38.3006 23.6256 37.2308 22.4764 36.448 21.0169C35.6655 19.5574 35.2745 17.9 35.275 16.0448C35.275 14.6302 35.4964 13.3259 35.9391 12.1319C36.3819 10.938 37.009 9.90695 37.8205 9.03891C38.6295 8.17118 39.609 7.47934 40.6977 7.00662C41.8045 6.51979 43.0067 6.27651 44.3044 6.27675C45.6021 6.277 46.7973 6.52029 47.8899 7.00662C48.9732 7.48721 49.9449 8.18675 50.7438 9.06112C51.5548 9.94519 52.1817 10.9766 52.6245 12.1553C53.0672 13.334 53.2885 14.6305 53.2883 16.0448C53.2883 17.4298 53.067 18.7113 52.6245 19.8895" fill="white"/>
<path d="M78.7395 17.2817C78.2965 18.4609 77.9276 19.4849 77.6328 20.3536C77.338 21.2224 77.0725 22.0473 76.8363 22.8282C76.8033 22.9359 76.7685 23.0573 76.7355 23.1684C76.5872 22.6942 76.439 22.2172 76.2833 21.7227C76.0911 21.1202 75.8623 20.4574 75.5969 19.7344C75.3315 19.0115 75.0215 18.1937 74.6669 17.281L68.2497 0.61957H61.1676L73.5613 31.5585H79.3585L91.8411 0.61957H84.8476L78.7395 17.2817Z" fill="white"/>
<path d="M102.905 25.7236V6.45404H117.29V0.61957H96.3992V31.5577H117.6V25.7236H102.905Z" fill="white"/>
<path d="M18.9651 19.1386C20.5144 18.2542 21.7465 17.0609 22.6615 15.5585C23.5764 14.056 24.0336 12.3763 24.0328 10.5194C24.0328 8.6044 23.5757 6.90286 22.6615 5.41476C21.7472 3.92666 20.5151 2.75562 18.9651 1.90164C17.4161 1.04619 15.668 0.618829 13.721 0.619569H0V31.5577H6.37495V6.36595H12.5694C13.5434 6.36595 14.3991 6.55101 15.1364 6.92112C15.8737 7.29124 16.4496 7.80557 16.864 8.46413C17.2769 9.12712 17.4833 9.8861 17.4833 10.7411C17.4833 11.5662 17.3135 12.3026 16.974 12.9503C16.6527 13.5798 16.1625 14.1077 15.5582 14.4751C14.9521 14.8445 14.2507 15.0283 13.4541 15.0266H8.30226L11.3785 20.4628L17.616 31.5577L25.2722 31.6025L18.2724 19.4943C18.5063 19.3832 18.7379 19.2677 18.964 19.1386" fill="white"/>
<path d="M107.628 18.6078H112.614H113.294V12.9503H112.614H107.628V18.6078Z" fill="white"/>
</g>
</mask>
<g mask="url(#mask0_0_496)">
<rect x="-32" y="-5" width="168" height="44" fill="white"/>
</g>
</g>
<defs>
<clipPath id="clip0_0_496">
<rect width="117.6" height="32" fill="white"/>
</clipPath>
<clipPath id="clip1_0_496">
<rect width="117.6" height="32" fill="white"/>
</clipPath>
</defs>
</svg>
