<svg width="110" height="32" viewBox="0 0 110 32" fill="none" xmlns="http://www.w3.org/2000/svg">
<path d="M13.0292 31.9907L4.3393 23.2986C1.56089 20.5196 0 16.7504 0 12.8201C0 8.8899 1.56089 5.12066 4.3393 2.34156L6.67495 0.00537109L15.3698 8.70233C18.146 11.4819 19.7051 15.2504 19.7042 19.1795C19.7033 23.1084 18.1425 26.8762 15.3649 29.6544L13.0292 31.9907Z" fill="url(#paint0_linear_6806_100478)"/>
<path d="M10.6948 8.70185L19.3946 0L21.7303 2.3362C23.1074 3.71244 24.1998 5.34667 24.9452 7.14549C25.6907 8.94432 26.0744 10.8724 26.0744 12.8197C26.0744 14.7669 25.6907 16.695 24.9452 18.4939C24.1998 20.2926 23.1074 21.9268 21.7303 23.3031L13.0353 32L10.6948 29.659C7.91637 26.8798 6.35547 23.1106 6.35547 19.1804C6.35547 15.2502 7.91637 11.4809 10.6948 8.70185Z" fill="url(#paint1_linear_6806_100478)"/>
<path d="M45.1994 25.2317C43.3235 25.2317 41.8399 24.8145 40.7485 23.9801C39.657 23.1286 39.1113 21.9962 39.1113 20.5828V19.7399C39.1113 19.5696 39.1966 19.4845 39.3671 19.4845H40.1601C40.3307 19.4845 40.4159 19.5696 40.4159 19.7399V20.5062C40.4159 21.562 40.8508 22.4134 41.7205 23.0605C42.5902 23.7076 43.784 24.0311 45.3017 24.0311C46.7172 24.0311 47.8001 23.7417 48.5504 23.1627C49.3008 22.5667 49.676 21.7493 49.676 20.7106C49.676 20.0805 49.5054 19.5356 49.1643 19.0758C48.8403 18.599 48.3287 18.1563 47.6295 17.7476C46.9474 17.3389 45.9754 16.8706 44.7134 16.3427C43.3832 15.7808 42.3771 15.3125 41.6949 14.9378C41.0298 14.5632 40.4927 14.0949 40.0834 13.533C39.6741 12.954 39.4695 12.2132 39.4695 11.3107C39.4695 9.91437 39.9469 8.84157 40.9019 8.09231C41.874 7.32602 43.2127 6.94287 44.918 6.94287C46.7769 6.94287 48.2349 7.36859 49.2922 8.22002C50.3496 9.07146 50.8782 10.2124 50.8782 11.6428V12.2303C50.8782 12.4006 50.793 12.4857 50.6224 12.4857H49.7783C49.6077 12.4857 49.5225 12.4006 49.5225 12.2303V11.7194C49.5225 10.6466 49.1132 9.78666 48.2946 9.13957C47.4761 8.47545 46.3249 8.14339 44.8413 8.14339C43.5452 8.14339 42.5476 8.41585 41.8484 8.96077C41.1492 9.48866 40.7996 10.2549 40.7996 11.2596C40.7996 11.9408 40.9616 12.4942 41.2856 12.9199C41.6097 13.3457 42.0701 13.7203 42.667 14.0438C43.2809 14.3503 44.2188 14.759 45.4808 15.2699C46.7428 15.7808 47.7574 16.2746 48.5248 16.7514C49.3093 17.2112 49.9232 17.7561 50.3666 18.3861C50.81 19.0162 51.0317 19.774 51.0317 20.6595C51.0317 22.0388 50.5201 23.1457 49.4969 23.9801C48.4737 24.8145 47.0412 25.2317 45.1994 25.2317ZM59.5764 24.0311C60.3779 24.0311 61.06 23.8523 61.6228 23.4947C62.2026 23.1201 62.6545 22.6093 62.9785 21.9622C63.0638 21.8089 63.1747 21.7663 63.3111 21.8344L63.9762 22.1665C64.1297 22.2517 64.1723 22.3623 64.1041 22.4986C63.7289 23.333 63.132 23.9971 62.3135 24.4909C61.5119 24.9848 60.5655 25.2317 59.4741 25.2317C58.2803 25.2317 57.2656 24.9422 56.43 24.3632C55.5944 23.7842 55.0231 22.9924 54.7161 21.9877C54.5797 21.562 54.4859 21.0852 54.4348 20.5573C54.3836 20.0294 54.358 19.3653 54.358 18.5649C54.358 17.7305 54.3665 17.1005 54.3836 16.6748C54.4177 16.249 54.4774 15.8574 54.5627 15.4998C54.8355 14.427 55.3898 13.567 56.2254 12.9199C57.078 12.2728 58.1183 11.9493 59.3462 11.9493C60.7445 11.9493 61.8615 12.3154 62.6972 13.0477C63.5328 13.7629 64.0529 14.759 64.2576 16.0362C64.3087 16.3597 64.3428 16.7429 64.3599 17.1856C64.3769 17.6113 64.3855 18.1477 64.3855 18.7948C64.3855 18.9651 64.3002 19.0503 64.1297 19.0503H55.7905C55.7223 19.0503 55.6882 19.0843 55.6882 19.1524C55.6882 20.2423 55.7308 20.966 55.8161 21.3236C56.0037 22.158 56.4215 22.8221 57.0695 23.3159C57.7346 23.7927 58.5702 24.0311 59.5764 24.0311ZM55.8672 15.8063C55.782 16.1298 55.7223 16.794 55.6882 17.7987C55.6882 17.8668 55.7223 17.9008 55.7905 17.9008H62.9274C62.9956 17.9008 63.0297 17.8668 63.0297 17.7987C63.0297 16.9472 62.9871 16.3086 62.9018 15.8829C62.7142 15.0656 62.3049 14.4099 61.674 13.9161C61.043 13.4053 60.267 13.1498 59.3462 13.1498C58.4253 13.1498 57.6579 13.3967 57.0439 13.8906C56.43 14.3674 56.0378 15.0059 55.8672 15.8063ZM73.3966 11.9748C74.7097 11.9748 75.767 12.375 76.5686 13.1754C77.3871 13.9757 77.7964 15.0315 77.7964 16.3427V24.7719C77.7964 24.9422 77.7111 25.0273 77.5406 25.0273H76.6965C76.5259 25.0273 76.4407 24.9422 76.4407 24.7719V16.5981C76.4407 15.5934 76.1337 14.7761 75.5198 14.146C74.9058 13.4989 74.1043 13.1754 73.1152 13.1754C72.092 13.1754 71.2649 13.4904 70.634 14.1205C70.003 14.7335 69.6875 15.5424 69.6875 16.547V24.7719C69.6875 24.9422 69.6022 25.0273 69.4317 25.0273H68.5875C68.417 25.0273 68.3317 24.9422 68.3317 24.7719V12.4091C68.3317 12.2388 68.417 12.1536 68.5875 12.1536H69.4317C69.6022 12.1536 69.6875 12.2388 69.6875 12.4091V13.6607C69.6875 13.7118 69.696 13.7458 69.7131 13.7629C69.7472 13.7629 69.7727 13.7458 69.7898 13.7118C70.165 13.1498 70.6595 12.7241 71.2735 12.4346C71.8874 12.1281 72.5951 11.9748 73.3966 11.9748ZM87.443 13.0477C87.443 13.2179 87.3577 13.3031 87.1872 13.3031H84.1943C84.1261 13.3031 84.092 13.3371 84.092 13.4053V21.4768C84.092 22.3453 84.2881 22.9583 84.6803 23.3159C85.0725 23.6565 85.7035 23.8268 86.5733 23.8268H87.1616C87.3321 23.8268 87.4174 23.9119 87.4174 24.0822V24.7719C87.4174 24.9422 87.3321 25.0273 87.1616 25.0273L86.3942 25.0529C85.2005 25.0529 84.2966 24.823 83.6827 24.3632C83.0858 23.9034 82.7789 23.0605 82.7618 21.8344V13.4053C82.7618 13.3371 82.7277 13.3031 82.6595 13.3031H81.1247C80.9541 13.3031 80.8689 13.2179 80.8689 13.0477V12.4091C80.8689 12.2388 80.9541 12.1536 81.1247 12.1536H82.6595C82.7277 12.1536 82.7618 12.1196 82.7618 12.0515V9.13957C82.7618 8.96928 82.8471 8.88414 83.0176 8.88414H83.8362C84.0067 8.88414 84.092 8.96928 84.092 9.13957V12.0515C84.092 12.1196 84.1261 12.1536 84.1943 12.1536H87.1872C87.3577 12.1536 87.443 12.2388 87.443 12.4091V13.0477ZM96.1243 12.0515C96.7041 12.0515 97.1986 12.1536 97.6079 12.358C97.7443 12.4091 97.7955 12.5198 97.7614 12.69L97.5312 13.5074C97.48 13.6777 97.3692 13.7288 97.1986 13.6607C96.8576 13.5245 96.4312 13.4649 95.9196 13.4819C94.9646 13.4989 94.1716 13.865 93.5407 14.5802C92.9267 15.2784 92.6198 16.1384 92.6198 17.1601V24.7719C92.6198 24.9422 92.5345 25.0273 92.364 25.0273H91.5198C91.3493 25.0273 91.264 24.9422 91.264 24.7719V12.4091C91.264 12.2388 91.3493 12.1536 91.5198 12.1536H92.364C92.5345 12.1536 92.6198 12.2388 92.6198 12.4091V14.146C92.6198 14.1971 92.6283 14.2311 92.6454 14.2482C92.6795 14.2482 92.705 14.2226 92.7221 14.1715C93.0802 13.5074 93.5407 12.9881 94.1034 12.6134C94.6832 12.2388 95.3569 12.0515 96.1243 12.0515ZM105.191 24.0311C105.993 24.0311 106.675 23.8523 107.237 23.4947C107.817 23.1201 108.269 22.6093 108.593 21.9622C108.678 21.8089 108.789 21.7663 108.926 21.8344L109.591 22.1665C109.744 22.2517 109.787 22.3623 109.719 22.4986C109.344 23.333 108.747 23.9971 107.928 24.4909C107.127 24.9848 106.18 25.2317 105.089 25.2317C103.895 25.2317 102.88 24.9422 102.045 24.3632C101.209 23.7842 100.638 22.9924 100.331 21.9877C100.194 21.562 100.101 21.0852 100.049 20.5573C99.9982 20.0294 99.9727 19.3653 99.9727 18.5649C99.9727 17.7305 99.9812 17.1005 99.9982 16.6748C100.032 16.249 100.092 15.8574 100.177 15.4998C100.45 14.427 101.004 13.567 101.84 12.9199C102.693 12.2728 103.733 11.9493 104.961 11.9493C106.359 11.9493 107.476 12.3154 108.312 13.0477C109.147 13.7629 109.668 14.759 109.872 16.0362C109.923 16.3597 109.957 16.7429 109.975 17.1856C109.992 17.6113 110 18.1477 110 18.7948C110 18.9651 109.915 19.0503 109.744 19.0503H101.405C101.337 19.0503 101.303 19.0843 101.303 19.1524C101.303 20.2423 101.345 20.966 101.431 21.3236C101.618 22.158 102.036 22.8221 102.684 23.3159C103.349 23.7927 104.185 24.0311 105.191 24.0311ZM101.482 15.8063C101.397 16.1298 101.337 16.794 101.303 17.7987C101.303 17.8668 101.337 17.9008 101.405 17.9008H108.542C108.61 17.9008 108.644 17.8668 108.644 17.7987C108.644 16.9472 108.602 16.3086 108.516 15.8829C108.329 15.0656 107.92 14.4099 107.289 13.9161C106.658 13.4053 105.882 13.1498 104.961 13.1498C104.04 13.1498 103.273 13.3967 102.659 13.8906C102.045 14.3674 101.652 15.0059 101.482 15.8063Z" fill="#F1F2F2"/>
<defs>
<linearGradient id="paint0_linear_6806_100478" x1="19.7124" y1="16.0005" x2="-0.00320813" y2="16.0005" gradientUnits="userSpaceOnUse">
<stop stop-color="#F9575E"/>
<stop offset="0.27" stop-color="#F8555B"/>
<stop offset="0.49" stop-color="#F44F51"/>
<stop offset="0.68" stop-color="#EE4540"/>
<stop offset="0.87" stop-color="#E63728"/>
<stop offset="1" stop-color="#DE2A13"/>
</linearGradient>
<linearGradient id="paint1_linear_6806_100478" x1="-59129.8" y1="49501.9" x2="-59658.7" y2="49372.1" gradientUnits="userSpaceOnUse">
<stop stop-color="#F9575E"/>
<stop offset="0.27" stop-color="#F8555B"/>
<stop offset="0.49" stop-color="#F44F51"/>
<stop offset="0.68" stop-color="#EE4540"/>
<stop offset="0.87" stop-color="#E63728"/>
<stop offset="1" stop-color="#DE2A13"/>
</linearGradient>
</defs>
</svg>
