<svg xmlns="http://www.w3.org/2000/svg" width="145" height="42" fill="none" viewBox="0 0 145 42">
    <g clip-path="url(#clip0)">
        <path fill="url(#paint0_linear)" d="M77.362 19.645c-.758-.323-1.446-.789-2.028-1.372-.576-.587-1.04-1.274-1.37-2.028-.413-.97-.578-2.029-.48-3.079.097-1.05.453-2.06 1.037-2.938.584-.879 1.376-1.599 2.307-2.096.93-.496 1.97-.754 3.024-.75.856 0 1.703.169 2.493.496.752.33 1.436.794 2.02 1.37.581.578 1.042 1.266 1.354 2.023.338.787.512 1.634.512 2.49 0 .856-.174 1.703-.512 2.49-.32.755-.781 1.443-1.357 2.027-.587.578-1.274 1.043-2.028 1.372-.791.323-1.638.49-2.492.49-.852.001-1.696-.167-2.482-.495h.002zm-.91-13.941c-2.102.882-3.774 2.553-4.657 4.654-.45 1.078-.682 2.235-.682 3.403 0 1.168.231 2.324.682 3.402.884 2.101 2.555 3.773 4.657 4.656 1.077.451 2.234.684 3.401.684 1.168 0 2.324-.233 3.402-.684 2.102-.882 3.774-2.554 4.657-4.656.45-1.078.681-2.233.681-3.4 0-1.168-.231-2.324-.681-3.401-.885-2.102-2.557-3.774-4.66-4.658-1.078-.448-2.233-.679-3.4-.679-1.168 0-2.323.23-3.401.679zm-18.606-.006c-1.038.445-1.984 1.08-2.788 1.875-.795.8-1.43 1.745-1.87 2.784-.454 1.078-.688 2.236-.688 3.405 0 1.17.234 2.327.687 3.404.441 1.038 1.076 1.982 1.87 2.781.801.795 1.745 1.432 2.783 1.876 1.079.45 2.236.68 3.405.68 2.315.001 4.537-.915 6.179-2.548.798-.804 1.435-1.752 1.877-2.794.095-.227.18-.46.261-.702H67.02c-.316.673-.743 1.288-1.265 1.818-.59.597-1.294 1.07-2.07 1.39-.776.32-1.61.48-2.449.471-.838.003-1.669-.16-2.443-.48-.775-.321-1.478-.792-2.069-1.387-.576-.587-1.04-1.275-1.37-2.029-.653-1.594-.651-3.38.006-4.973.488-1.157 1.307-2.143 2.355-2.835 1.047-.692 2.276-1.058 3.53-1.054.857 0 1.704.17 2.494.5.752.33 1.439.793 2.026 1.367.524.531.95 1.149 1.262 1.826h2.537c-.076-.243-.165-.48-.259-.71-.886-2.101-2.558-3.773-4.658-4.66-1.078-.448-2.233-.68-3.4-.68-1.166-.001-2.322.228-3.4.674v.001zm33.382 16.805h2.361V5.024h-2.36v17.479zm29.159-11.319c0-.547.108-1.09.318-1.596.209-.506.516-.966.904-1.353.387-.387.847-.694 1.353-.904.506-.21 1.048-.318 1.596-.318.547 0 1.09.108 1.596.318.506.21.966.517 1.353.904s.694.847.904 1.353c.21.506.317 1.049.317 1.596 0 1.106-.439 2.167-1.221 2.95-.782.781-1.843 1.22-2.949 1.22-1.106 0-2.167-.439-2.949-1.22-.783-.783-1.222-1.844-1.222-2.95zm-2.123.034c0 3.411 2.816 6.08 6.405 6.08h1.425l-2.785 5.283h2.375l4.332-8.304c.539-.954.837-2.027.866-3.123-.043-1.65-.731-3.218-1.917-4.366-1.185-1.149-2.773-1.788-4.423-1.78-1.651.01-3.232.664-4.406 1.825-1.173 1.16-1.845 2.734-1.872 4.385zm16.691 6.112c.017-.955.409-1.864 1.09-2.533.681-.669 1.598-1.044 2.552-1.044.955 0 1.872.375 2.553 1.044.681.669 1.072 1.578 1.09 2.533 0 .966-.384 1.892-1.067 2.575-.683.683-1.61 1.067-2.576 1.067s-1.892-.384-2.575-1.067c-.683-.683-1.067-1.61-1.067-2.575zm1.213-7.998c.001-.641.252-1.257.699-1.716.448-.458 1.057-.724 1.698-.741.652 0 1.277.26 1.739.72.461.461.72 1.087.72 1.739 0 .652-.259 1.277-.72 1.738-.462.461-1.087.72-1.739.72-.641-.016-1.25-.282-1.698-.741-.447-.46-.698-1.074-.699-1.715v-.004zm-1.961.004c-.01.952.29 1.882.855 2.649l.486.649-.62.526c-.609.51-1.098 1.149-1.432 1.87-.335.72-.506 1.506-.503 2.3 0 1.487.59 2.913 1.641 3.964 1.052 1.051 2.477 1.642 3.964 1.642s2.912-.59 3.963-1.642c1.052-1.051 1.642-2.477 1.642-3.963.005-.804-.17-1.598-.51-2.326-.34-.727-.838-1.37-1.458-1.882l-.632-.531.508-.655c.577-.745.885-1.662.875-2.604-.019-1.152-.49-2.25-1.31-3.057-.821-.807-1.927-1.26-3.078-1.26-1.152 0-2.257.453-3.078 1.26-.821.808-1.291 1.905-1.31 3.057l-.003.003zm-21.606-4.312v13.56c.019.16.005.323-.043.477-.047.154-.126.297-.232.42-.106.121-.237.22-.383.288-.147.068-.306.105-.467.108-.274-.015-.539-.106-.765-.261-.226-.155-.406-.37-.518-.62l-5.396-11.613c-.281-.703-.769-1.304-1.398-1.725-.629-.421-1.371-.642-2.128-.634-.879-.01-1.735.287-2.42.839-.031.023-.062.048-.09.074-.36.295-.65.667-.847 1.088-.198.421-.3.881-.298 1.346v14.132h2.502V8.737c-.008-.156.016-.313.071-.46.055-.148.139-.283.247-.397.108-.114.239-.204.383-.266.144-.062.3-.094.457-.094.275.01.541.1.765.26.223.16.395.383.494.64l.048.114c1.268 2.804 4.105 8.97 5.765 12.242.559 1.098 1.513 1.592 3.098 1.6.895.016 1.769-.278 2.472-.832.389-.248.704-.596.912-1.007.208-.41.302-.87.271-1.33V5.024h-2.5z"/>
        <path fill="#fff" d="M54.915 36.6c-.059.006-.118-.001-.173-.02-.055-.02-.106-.052-.148-.094-.041-.041-.073-.092-.093-.147-.02-.056-.026-.115-.02-.173v-8.167c-.005-.058.003-.117.023-.173.02-.056.05-.107.09-.15.061-.067.141-.114.23-.133.088-.02.18-.01.263.025.083.036.153.096.2.174.047.077.069.167.062.257v8.167c.004.058-.004.116-.023.17-.02.056-.049.106-.087.15-.044.04-.095.07-.15.09-.056.02-.115.028-.174.024zM58.457 36.6c-.06.008-.12.003-.176-.016-.056-.019-.108-.05-.15-.093-.042-.042-.074-.093-.093-.15-.018-.056-.024-.116-.016-.175v-8.167c-.008-.059-.003-.119.016-.175.02-.057.05-.108.093-.15.042-.043.094-.074.15-.093.057-.019.117-.024.176-.016.088.007.173.034.25.078.075.044.14.105.19.177l5.535 7.112v-6.933c-.002-.058.007-.116.028-.17.021-.055.053-.105.093-.147.04-.042.09-.076.143-.098.054-.023.112-.035.17-.035.058 0 .116.012.17.035.054.022.102.056.143.098.04.042.072.092.093.146.02.055.03.113.028.171v8.167c.008.059.003.119-.016.175-.019.057-.05.108-.093.15-.042.042-.093.074-.15.093-.056.019-.116.024-.175.016-.088-.006-.174-.032-.25-.077-.077-.044-.142-.105-.191-.179l-5.534-7.111v6.933c.008.059.003.119-.016.175-.019.057-.05.108-.093.15-.042.042-.093.074-.15.093-.056.019-.116.024-.175.016zM70.275 36.593c-.653.047-1.301-.139-1.83-.524-.221-.212-.397-.467-.517-.749s-.182-.585-.182-.891v-.041c-.003-.055.005-.11.024-.161.019-.052.048-.099.086-.139.043-.038.093-.068.147-.087.055-.019.112-.027.17-.023.057-.004.114.004.168.023.054.019.103.049.145.087.078.089.125.2.135.317-.007.191.027.382.1.559.072.177.181.337.32.468.37.225.802.326 1.233.29h1.985c.467.05.937-.078 1.313-.36.281-.372.41-.836.36-1.3.05-.468-.082-.939-.37-1.313-.374-.28-.84-.408-1.306-.359H70.43c-.336.033-.676-.004-.997-.11-.321-.105-.617-.277-.868-.503-.25-.227-.451-.504-.589-.813-.137-.308-.209-.642-.21-.98 0-.339.07-.673.206-.983.136-.31.336-.587.585-.814.25-.228.545-.401.866-.508.32-.107.66-.146.997-.114h1.833c.613-.044 1.222.13 1.719.492.209.2.375.438.49.703.114.265.173.55.175.838v.06c.001.05-.007.101-.025.149-.019.047-.046.09-.082.127-.043.04-.093.07-.148.088-.056.02-.114.027-.172.023-.057.003-.114-.005-.167-.025-.054-.02-.103-.05-.144-.09-.078-.086-.124-.197-.13-.313.003-.174-.031-.346-.1-.506-.07-.16-.171-.303-.3-.42-.336-.2-.726-.291-1.116-.26H70.42c-.431-.048-.865.072-1.21.335-.256.345-.373.775-.328 1.203-.045.43.075.862.335 1.209.346.267.782.39 1.216.341h1.826c.355-.035.713.004 1.051.115.339.11.65.292.914.53.265.24.476.531.62.857.145.325.22.678.22 1.034s-.075.709-.22 1.034c-.144.326-.355.617-.62.856-.264.24-.575.42-.914.531-.338.111-.696.15-1.05.115l-1.985.002zM77.676 36.6c-.059.006-.118-.001-.173-.02-.056-.02-.106-.052-.148-.094-.041-.041-.073-.092-.093-.147-.02-.056-.027-.115-.02-.173v-8.167c-.005-.058.003-.117.023-.173.02-.056.05-.107.09-.15.061-.067.141-.113.23-.133.088-.019.18-.01.263.026.083.035.153.096.2.173.047.077.069.167.062.257v8.167c.004.058-.004.116-.023.17-.02.056-.049.107-.088.15-.043.04-.094.07-.15.09-.055.02-.114.028-.173.024zM83.492 36.6c-.4.034-.804-.01-1.187-.132-.383-.122-.739-.318-1.046-.578-.26-.307-.456-.662-.578-1.046-.122-.383-.167-.787-.132-1.187v-3.15c-.036-.4.008-.805.13-1.19.121-.384.317-.74.577-1.049.301-.256.65-.45 1.027-.57.377-.121.773-.166 1.168-.133h1.695c.682-.05 1.361.136 1.923.527.23.216.414.478.538.77.124.29.185.604.18.92.006.028.008.055.008.083.002.096-.034.189-.1.258-.043.04-.094.069-.149.087-.055.019-.113.026-.17.02-.06.004-.12-.004-.175-.024-.055-.02-.106-.052-.15-.092-.042-.041-.076-.09-.099-.145-.022-.055-.034-.113-.032-.172.008-.202-.03-.404-.109-.59-.079-.186-.199-.351-.35-.486-.398-.225-.855-.326-1.312-.29h-1.723c-.4-.015-.797.05-1.171.19-.29.122-.52.354-.638.645-.147.396-.214.818-.197 1.24v3.149c-.016.418.05.835.197 1.227.122.295.357.529.651.651.392.146.81.213 1.227.197h1.654c.368.014.735-.04 1.082-.163.126-.05.24-.124.335-.22.095-.095.17-.209.22-.334.121-.347.177-.715.162-1.082v-.793l-1.365-.014c-.113-.004-.219-.052-.297-.133-.078-.08-.122-.189-.122-.301 0-.112.044-.22.122-.301.078-.082.184-.129.297-.133l1.797.013c.06-.008.12-.003.176.016.057.019.108.05.15.093.042.042.074.093.093.15.019.056.024.116.016.175v1.227c.033.364-.007.731-.116 1.08-.11.35-.286.673-.521.953-.566.472-1.296.7-2.03.634l-1.656.003zM90.975 31.59h4.423c.113-.002.223.036.31.107.085.089.132.207.132.33 0 .122-.047.24-.131.329-.089.069-.199.105-.31.103h-4.425v3.708c.002.058-.007.117-.028.171-.021.055-.053.105-.093.147-.04.042-.09.075-.143.098-.054.023-.112.035-.17.035-.059 0-.116-.012-.17-.035-.054-.023-.102-.056-.143-.098-.04-.042-.072-.092-.093-.147-.02-.054-.03-.113-.028-.171v-8.168c-.002-.057.009-.115.03-.168.022-.054.054-.103.095-.143.041-.041.09-.073.144-.094.054-.021.112-.031.17-.03.057 0 .114.01.167.031.053.021.102.053.142.094.041.04.073.09.094.142.022.054.032.111.03.168l-.003 3.591zM97.571 28v8.166c0 .057-.01.114-.03.168-.022.053-.054.101-.094.142-.041.04-.09.072-.143.093-.053.022-.11.032-.167.03-.057.003-.113-.007-.165-.029-.053-.021-.1-.053-.139-.094-.042-.04-.076-.088-.099-.141-.022-.053-.033-.111-.032-.17V28c-.001-.058.01-.115.032-.169.023-.053.057-.102.1-.141.038-.04.085-.073.137-.095.053-.02.109-.031.165-.03.057 0 .115.01.168.031.053.021.102.053.142.094.04.04.073.09.094.142.021.054.031.111.03.168zM106.536 27.685c.042.041.074.09.094.145.021.055.03.113.026.172.006.116-.033.23-.11.317-.041.04-.091.073-.146.094-.054.02-.113.03-.171.026h-6.563c-.059.006-.118-.001-.174-.02-.055-.02-.105-.052-.147-.094-.042-.041-.073-.092-.093-.147-.02-.056-.026-.115-.02-.173-.006-.059.002-.118.022-.173.02-.056.051-.106.092-.148.042-.042.092-.074.147-.095.055-.02.114-.029.173-.024h6.561c.057-.005.115.003.168.024.054.02.102.053.141.096zm-4.031 2.053c-.003-.109.028-.216.09-.306.044-.048.099-.085.16-.107.061-.022.126-.03.191-.021.063-.008.128 0 .188.021.06.023.113.059.156.107.062.09.093.197.09.306v6.43c.005.058-.003.117-.024.172-.02.054-.052.104-.093.145-.041.041-.091.073-.146.093-.055.02-.113.029-.171.024-.118.006-.233-.035-.32-.114-.042-.042-.074-.092-.094-.147-.021-.055-.03-.114-.026-.173l-.001-6.43zM110.595 36.593c-.652.047-1.301-.138-1.83-.524-.221-.212-.397-.467-.517-.749s-.182-.585-.182-.891v-.041c-.003-.055.005-.11.024-.161.019-.052.048-.099.086-.139.043-.038.093-.068.148-.087.054-.019.112-.027.169-.023.057-.004.115.004.168.023.054.019.104.049.146.087.078.089.125.2.135.317-.007.191.027.382.099.559.072.177.181.337.32.468.37.225.802.326 1.234.29h1.984c.468.05.937-.078 1.313-.36.282-.372.41-.836.36-1.3.052-.468-.081-.939-.369-1.312-.374-.28-.841-.41-1.306-.36h-1.826c-.336.034-.676-.004-.997-.11-.321-.105-.617-.276-.868-.503-.251-.226-.451-.503-.589-.812-.138-.309-.209-.643-.21-.98-.001-.339.069-.674.205-.983.136-.31.336-.587.585-.815.25-.228.545-.4.865-.508.321-.107.661-.146.997-.114h1.833c.614-.044 1.223.13 1.72.493.209.199.375.438.489.702.114.265.174.55.176.838v.06c.001.05-.007.101-.026.149-.018.047-.046.09-.081.127-.043.04-.094.07-.149.088-.055.02-.113.027-.172.023-.056.003-.113-.005-.167-.025-.053-.02-.102-.05-.143-.09-.078-.086-.124-.197-.131-.313.004-.174-.031-.346-.099-.506-.069-.16-.172-.303-.3-.42-.336-.2-.727-.291-1.117-.26h-1.833c-.431-.048-.864.072-1.209.335-.256.345-.373.775-.328 1.203-.045.43.074.862.335 1.209.346.267.782.39 1.216.341h1.826c.354-.035.712.004 1.051.115.338.11.65.292.914.53.264.24.476.531.62.857.145.325.219.678.219 1.034s-.074.709-.219 1.034c-.144.326-.356.617-.62.857-.264.238-.576.42-.914.53-.339.112-.697.15-1.051.115l-1.984.002z"/>
        <path fill="url(#paint1_linear)" d="M34.34 0H7.65C5.62.002 3.674.81 2.24 2.246.804 3.683 0 5.63 0 7.66V34.34c0 2.03.805 3.978 2.24 5.414C3.673 41.19 5.62 41.998 7.65 42h26.69c2.03-.002 3.977-.81 5.411-2.246 1.435-1.436 2.24-3.383 2.24-5.413V7.659c0-2.03-.805-3.977-2.24-5.413C38.317.81 36.371.002 34.341 0zM27.86 10.496c1.488.002 2.915.594 3.968 1.646 1.052 1.053 1.645 2.48 1.647 3.968.001.94-.235 1.863-.688 2.686-.7-.571-1.498-1.011-2.355-1.3.227-.427.347-.902.348-1.386.006-.386-.066-.77-.21-1.13-.144-.36-.358-.686-.63-.962-.272-.275-.596-.494-.953-.644-.357-.15-.74-.226-1.127-.226s-.77.077-1.128.226c-.357.15-.68.369-.952.644-.272.276-.486.603-.63.962-.145.36-.216.743-.21 1.13-.004.485.116.963.349 1.388-.857.289-1.654.73-2.355 1.3-.453-.822-.69-1.746-.688-2.685 0-1.49.591-2.918 1.644-3.971 1.052-1.053 2.48-1.646 3.97-1.646zM14.132 31.505c-1.489-.002-2.916-.594-3.968-1.647-1.053-1.052-1.645-2.48-1.647-3.968h2.697c0 .384.075.763.222 1.118.147.354.362.676.633.947.271.272.593.487.947.633.355.147.735.223 1.118.223.384 0 .764-.076 1.118-.223.354-.146.676-.361.947-.633.272-.27.487-.593.634-.947.146-.355.222-.734.222-1.118h2.697c0 .738-.146 1.468-.429 2.15-.283.68-.697 1.3-1.218 1.821-.522.522-1.142.935-1.823 1.217-.682.282-1.412.427-2.15.427zm0-7.886c-1.298-.001-2.566-.387-3.645-1.109-1.078-.722-1.918-1.747-2.414-2.947-.496-1.199-.625-2.518-.37-3.79.254-1.274.88-2.442 1.798-3.36.918-.916 2.088-1.54 3.361-1.792 1.273-.252 2.592-.122 3.79.376 1.2.498 2.224 1.34 2.944 2.419.72 1.08 1.104 2.348 1.103 3.646 0 .862-.171 1.715-.502 2.51-.33.797-.814 1.52-1.424 2.129s-1.333 1.091-2.13 1.42c-.796.33-1.65.499-2.511.498zm13.727 7.886c-1.299 0-2.568-.383-3.648-1.104-1.08-.72-1.922-1.745-2.419-2.945-.497-1.2-.628-2.519-.375-3.792.253-1.274.878-2.444 1.797-3.362.918-.918 2.087-1.543 3.36-1.796 1.274-.253 2.594-.122 3.793.375 1.2.497 2.224 1.339 2.945 2.419.72 1.08 1.105 2.35 1.104 3.648-.003 1.738-.695 3.404-1.924 4.633-1.23 1.229-2.895 1.92-4.633 1.924zm3.872-6.557c0 .765-.227 1.514-.653 2.15-.425.638-1.03 1.134-1.738 1.427-.707.293-1.486.37-2.237.22-.751-.15-1.441-.518-1.983-1.06-.541-.541-.91-1.23-1.06-1.982-.149-.751-.072-1.53.221-2.237.293-.708.79-1.313 1.426-1.738.637-.426 1.386-.653 2.152-.653.508 0 1.012.1 1.482.294.47.195.897.48 1.256.84.36.36.645.786.84 1.256.194.47.294.974.294 1.483zm-13.727-7.886c0 .766-.227 1.515-.652 2.151-.426.637-1.03 1.133-1.738 1.427-.708.293-1.487.37-2.238.22-.75-.15-1.44-.518-1.982-1.06-.542-.541-.91-1.231-1.06-1.982-.15-.752-.073-1.53.22-2.238.293-.707.79-1.312 1.426-1.738.637-.425 1.386-.652 2.152-.652 1.026.001 2.01.41 2.736 1.136.726.726 1.135 1.71 1.136 2.736z"/>
    </g>
    <defs>
        <linearGradient id="paint0_linear" x1="98.352" x2="98.352" y1="22.932" y2="5.004" gradientUnits="userSpaceOnUse">
            <stop stop-color="#CDA146"/>
            <stop offset="1" stop-color="#F1D961"/>
        </linearGradient>
        <linearGradient id="paint1_linear" x1="42.697" x2="-.706" y1="6.362" y2="35.638" gradientUnits="userSpaceOnUse">
            <stop stop-color="#F1D961"/>
            <stop offset="1" stop-color="#CDA146"/>
        </linearGradient>
        <clipPath id="clip0">
            <path fill="#fff" d="M0 0H144.203V42H0z"/>
        </clipPath>
    </defs>
</svg>
